{
    "asset" : {
        "generator" : "Khronos glTF Blender I/O v3.2.43",
        "version" : "2.0"
    },
    "scene" : 0,
    "scenes" : [
        {
            "name" : "Scene",
            "nodes" : [
                0,
                1,
                2
            ]
        }
    ],
    "nodes" : [
        {
            "mesh" : 0,
            "name" : "3DBenchy",
            "rotation" : [
                0,
                -0.7071068286895752,
                0,
                0.7071068286895752
            ],
            "scale" : [
                0.10000002384185791,
                0.10000002384185791,
                0.10000002384185791
            ],
            "translation" : [
                -0.0013718605041503906,
                0,
                -0.830458402633667
            ]
        },
        {
            "mesh" : 1,
            "name" : "3DBenchy.001",
            "rotation" : [
                0,
                -0.9238795638084412,
                0,
                0.3826834559440613
            ],
            "scale" : [
                0.10000002384185791,
                0.10000002384185791,
                0.10000002384185791
            ],
            "translation" : [
                4.2964558601379395,
                0,
                0.5226106643676758
            ]
        },
        {
            "mesh" : 2,
            "name" : "3DBenchy.002",
            "rotation" : [
                0,
                -0.3826834559440613,
                0,
                0.9238795638084412
            ],
            "scale" : [
                0.10000001639127731,
                0.10000002384185791,
                0.10000001639127731
            ],
            "translation" : [
                -4.513962268829346,
                0,
                0.5226101875305176
            ]
        }
    ],
    "animations" : [
        {
            "channels" : [
                {
                    "sampler" : 0,
                    "target" : {
                        "node" : 0,
                        "path" : "translation"
                    }
                },
                {
                    "sampler" : 1,
                    "target" : {
                        "node" : 0,
                        "path" : "rotation"
                    }
                }
            ],
            "name" : "3DBenchyAction",
            "samplers" : [
                {
                    "input" : 7,
                    "interpolation" : "STEP",
                    "output" : 8
                },
                {
                    "input" : 7,
                    "interpolation" : "STEP",
                    "output" : 9
                }
            ]
        },
        {
            "channels" : [
                {
                    "sampler" : 0,
                    "target" : {
                        "node" : 1,
                        "path" : "translation"
                    }
                },
                {
                    "sampler" : 1,
                    "target" : {
                        "node" : 1,
                        "path" : "rotation"
                    }
                }
            ],
            "name" : "3DBenchy.001Action",
            "samplers" : [
                {
                    "input" : 10,
                    "interpolation" : "LINEAR",
                    "output" : 11
                },
                {
                    "input" : 10,
                    "interpolation" : "LINEAR",
                    "output" : 12
                }
            ]
        },
        {
            "channels" : [
                {
                    "sampler" : 0,
                    "target" : {
                        "node" : 2,
                        "path" : "translation"
                    }
                },
                {
                    "sampler" : 1,
                    "target" : {
                        "node" : 2,
                        "path" : "rotation"
                    }
                }
            ],
            "name" : "3DBenchy.002Action",
            "samplers" : [
                {
                    "input" : 10,
                    "interpolation" : "LINEAR",
                    "output" : 13
                },
                {
                    "input" : 10,
                    "interpolation" : "LINEAR",
                    "output" : 14
                }
            ]
        }
    ],
    "materials" : [
        {
            "doubleSided" : true,
            "name" : "Material.002",
            "pbrMetallicRoughness" : {
                "baseColorFactor" : [
                    0,
                    0.004809136502444744,
                    0.15978935360908508,
                    1
                ],
                "metallicFactor" : 0,
                "roughnessFactor" : 0.5
            }
        },
        {
            "doubleSided" : true,
            "name" : "Material.003",
            "pbrMetallicRoughness" : {
                "baseColorFactor" : [
                    0.0011231709504500031,
                    0.43514272570610046,
                    0,
                    1
                ],
                "roughnessFactor" : 0.5
            }
        },
        {
            "doubleSided" : true,
            "name" : "Material.001",
            "pbrMetallicRoughness" : {
                "baseColorFactor" : [
                    0.800000011920929,
                    0.800000011920929,
                    0.800000011920929,
                    1
                ],
                "roughnessFactor" : 0.5
            }
        }
    ],
    "meshes" : [
        {
            "name" : "3DBenchy",
            "primitives" : [
                {
                    "attributes" : {
                        "POSITION" : 0,
                        "NORMAL" : 1
                    },
                    "indices" : 2,
                    "material" : 0
                }
            ]
        },
        {
            "name" : "3DBenchy.001",
            "primitives" : [
                {
                    "attributes" : {
                        "POSITION" : 3,
                        "NORMAL" : 4
                    },
                    "indices" : 2,
                    "material" : 1
                }
            ]
        },
        {
            "name" : "3DBenchy.002",
            "primitives" : [
                {
                    "attributes" : {
                        "POSITION" : 5,
                        "NORMAL" : 6
                    },
                    "indices" : 2,
                    "material" : 2
                }
            ]
        }
    ],
    "accessors" : [
        {
            "bufferView" : 0,
            "componentType" : 5126,
            "count" : 20040,
            "max" : [
                30.835290908813477,
                48,
                15.497244834899902
            ],
            "min" : [
                -29.167278289794922,
                -0.00024686314282007515,
                -15.497648239135742
            ],
            "type" : "VEC3"
        },
        {
            "bufferView" : 1,
            "componentType" : 5126,
            "count" : 20040,
            "type" : "VEC3"
        },
        {
            "bufferView" : 2,
            "componentType" : 5123,
            "count" : 20262,
            "type" : "SCALAR"
        },
        {
            "bufferView" : 3,
            "componentType" : 5126,
            "count" : 20040,
            "max" : [
                30.835290908813477,
                48,
                15.497244834899902
            ],
            "min" : [
                -29.167278289794922,
                -0.00024686314282007515,
                -15.497648239135742
            ],
            "type" : "VEC3"
        },
        {
            "bufferView" : 4,
            "componentType" : 5126,
            "count" : 20040,
            "type" : "VEC3"
        },
        {
            "bufferView" : 5,
            "componentType" : 5126,
            "count" : 20040,
            "max" : [
                30.835290908813477,
                48,
                15.497244834899902
            ],
            "min" : [
                -29.167278289794922,
                -0.00024686314282007515,
                -15.497648239135742
            ],
            "type" : "VEC3"
        },
        {
            "bufferView" : 6,
            "componentType" : 5126,
            "count" : 20040,
            "type" : "VEC3"
        },
        {
            "bufferView" : 7,
            "componentType" : 5126,
            "count" : 1,
            "max" : [
                0.041666666666666664
            ],
            "min" : [
                0.041666666666666664
            ],
            "type" : "SCALAR"
        },
        {
            "bufferView" : 8,
            "componentType" : 5126,
            "count" : 1,
            "type" : "VEC3"
        },
        {
            "bufferView" : 9,
            "componentType" : 5126,
            "count" : 1,
            "type" : "VEC4"
        },
        {
            "bufferView" : 10,
            "componentType" : 5126,
            "count" : 100,
            "max" : [
                4.166666666666667
            ],
            "min" : [
                0.041666666666666664
            ],
            "type" : "SCALAR"
        },
        {
            "bufferView" : 11,
            "componentType" : 5126,
            "count" : 100,
            "type" : "VEC3"
        },
        {
            "bufferView" : 12,
            "componentType" : 5126,
            "count" : 100,
            "type" : "VEC4"
        },
        {
            "bufferView" : 13,
            "componentType" : 5126,
            "count" : 100,
            "type" : "VEC3"
        },
        {
            "bufferView" : 14,
            "componentType" : 5126,
            "count" : 100,
            "type" : "VEC4"
        }
    ],
    "bufferViews" : [
        {
            "buffer" : 0,
            "byteLength" : 240480,
            "byteOffset" : 0
        },
        {
            "buffer" : 0,
            "byteLength" : 240480,
            "byteOffset" : 240480
        },
        {
            "buffer" : 0,
            "byteLength" : 40524,
            "byteOffset" : 480960
        },
        {
            "buffer" : 0,
            "byteLength" : 240480,
            "byteOffset" : 521484
        },
        {
            "buffer" : 0,
            "byteLength" : 240480,
            "byteOffset" : 761964
        },
        {
            "buffer" : 0,
            "byteLength" : 240480,
            "byteOffset" : 1002444
        },
        {
            "buffer" : 0,
            "byteLength" : 240480,
            "byteOffset" : 1242924
        },
        {
            "buffer" : 0,
            "byteLength" : 4,
            "byteOffset" : 1483404
        },
        {
            "buffer" : 0,
            "byteLength" : 12,
            "byteOffset" : 1483408
        },
        {
            "buffer" : 0,
            "byteLength" : 16,
            "byteOffset" : 1483420
        },
        {
            "buffer" : 0,
            "byteLength" : 400,
            "byteOffset" : 1483436
        },
        {
            "buffer" : 0,
            "byteLength" : 1200,
            "byteOffset" : 1483836
        },
        {
            "buffer" : 0,
            "byteLength" : 1600,
            "byteOffset" : 1485036
        },
        {
            "buffer" : 0,
            "byteLength" : 1200,
            "byteOffset" : 1486636
        },
        {
            "buffer" : 0,
            "byteLength" : 1600,
            "byteOffset" : 1487836
        }
    ],
    "buffers" : [
        {
            "byteLength" : 1489436,
            "uri" : "data:application/octet-stream;base64,"
        }
    ]
}
