{
    "asset" : {
        "generator" : "Khronos glTF Blender I/O v3.2.43",
        "version" : "2.0"
    },
    "scene" : 0,
    "scenes" : [
        {
            "extras" : {
                "sketcher" : {
                    "entities" : {},
                    "constraints" : {},
                    "version" : [
                        0,
                        25,
                        0
                    ]
                },
                "pdt_pg" : {
                    "percent" : 50.0,
                    "command" : "cp50.0",
                    "error" : "Select Exactly 3 Vertices (Currently selected: 32)"
                }
            },
            "name" : "Scene",
            "nodes" : [
                6
            ]
        }
    ],
    "nodes" : [
        {
            "name" : "Bone.002",
            "rotation" : [
                0.7071068286895752,
                8.429369557916289e-08,
                8.429369557916289e-08,
                0.7071068286895752
            ],
            "scale" : [
                0.9999999403953552,
                0.9999998807907104,
                0.9999998807907104
            ],
            "translation" : [
                0,
                7.38784646987915,
                -5.960464477539063e-08
            ]
        },
        {
            "children" : [
                0
            ],
            "name" : "Bone.001",
            "rotation" : [
                -0.7071068286895752,
                0,
                0,
                0.7071068286895752
            ],
            "scale" : [
                0.9999999403953552,
                0.9999999403953552,
                0.9999999403953552
            ],
            "translation" : [
                0,
                0.9999999403953552,
                0
            ]
        },
        {
            "name" : "Bone.004",
            "rotation" : [
                -0.7071067094802856,
                3.090862676913275e-08,
                1.994959717421807e-07,
                0.7071068286895752
            ],
            "scale" : [
                0.9999999403953552,
                1,
                1
            ],
            "translation" : [
                -2.842170943040401e-14,
                7.294071674346924,
                0
            ]
        },
        {
            "children" : [
                2
            ],
            "name" : "Bone.003",
            "rotation" : [
                0.7071068286895752,
                -1.152023116901546e-07,
                -1.1520232590100932e-07,
                0.7071068286895752
            ],
            "scale" : [
                0.9999999403953552,
                0.9999998807907104,
                0.9999998807907104
            ],
            "translation" : [
                0,
                0.9999999403953552,
                0
            ]
        },
        {
            "children" : [
                1,
                3
            ],
            "name" : "Bone",
            "scale" : [
                0.9999999403953552,
                0.9999999403953552,
                0.9999999403953552
            ]
        },
        {
            "mesh" : 0,
            "name" : "part",
            "skin" : 0
        },
        {
            "children" : [
                5,
                4
            ],
            "name" : "Armature",
            "scale" : [
                13.846171379089355,
                13.846171379089355,
                13.846171379089355
            ]
        }
    ],
    "animations" : [
        {
            "channels" : [
                {
                    "sampler" : 0,
                    "target" : {
                        "node" : 4,
                        "path" : "translation"
                    }
                },
                {
                    "sampler" : 1,
                    "target" : {
                        "node" : 4,
                        "path" : "rotation"
                    }
                },
                {
                    "sampler" : 2,
                    "target" : {
                        "node" : 4,
                        "path" : "scale"
                    }
                },
                {
                    "sampler" : 3,
                    "target" : {
                        "node" : 1,
                        "path" : "translation"
                    }
                },
                {
                    "sampler" : 4,
                    "target" : {
                        "node" : 1,
                        "path" : "rotation"
                    }
                },
                {
                    "sampler" : 5,
                    "target" : {
                        "node" : 1,
                        "path" : "scale"
                    }
                },
                {
                    "sampler" : 6,
                    "target" : {
                        "node" : 0,
                        "path" : "translation"
                    }
                },
                {
                    "sampler" : 7,
                    "target" : {
                        "node" : 0,
                        "path" : "rotation"
                    }
                },
                {
                    "sampler" : 8,
                    "target" : {
                        "node" : 0,
                        "path" : "scale"
                    }
                },
                {
                    "sampler" : 9,
                    "target" : {
                        "node" : 3,
                        "path" : "translation"
                    }
                },
                {
                    "sampler" : 10,
                    "target" : {
                        "node" : 3,
                        "path" : "rotation"
                    }
                },
                {
                    "sampler" : 11,
                    "target" : {
                        "node" : 3,
                        "path" : "scale"
                    }
                },
                {
                    "sampler" : 12,
                    "target" : {
                        "node" : 2,
                        "path" : "translation"
                    }
                },
                {
                    "sampler" : 13,
                    "target" : {
                        "node" : 2,
                        "path" : "rotation"
                    }
                },
                {
                    "sampler" : 14,
                    "target" : {
                        "node" : 2,
                        "path" : "scale"
                    }
                }
            ],
            "name" : "ArmatureAction",
            "samplers" : [
                {
                    "input" : 13,
                    "interpolation" : "LINEAR",
                    "output" : 14
                },
                {
                    "input" : 13,
                    "interpolation" : "LINEAR",
                    "output" : 15
                },
                {
                    "input" : 13,
                    "interpolation" : "LINEAR",
                    "output" : 16
                },
                {
                    "input" : 13,
                    "interpolation" : "LINEAR",
                    "output" : 17
                },
                {
                    "input" : 13,
                    "interpolation" : "LINEAR",
                    "output" : 18
                },
                {
                    "input" : 13,
                    "interpolation" : "LINEAR",
                    "output" : 19
                },
                {
                    "input" : 13,
                    "interpolation" : "LINEAR",
                    "output" : 20
                },
                {
                    "input" : 13,
                    "interpolation" : "LINEAR",
                    "output" : 21
                },
                {
                    "input" : 13,
                    "interpolation" : "LINEAR",
                    "output" : 22
                },
                {
                    "input" : 13,
                    "interpolation" : "LINEAR",
                    "output" : 23
                },
                {
                    "input" : 13,
                    "interpolation" : "LINEAR",
                    "output" : 24
                },
                {
                    "input" : 13,
                    "interpolation" : "LINEAR",
                    "output" : 25
                },
                {
                    "input" : 13,
                    "interpolation" : "LINEAR",
                    "output" : 26
                },
                {
                    "input" : 13,
                    "interpolation" : "LINEAR",
                    "output" : 27
                },
                {
                    "input" : 13,
                    "interpolation" : "LINEAR",
                    "output" : 28
                }
            ]
        },
        {
            "channels" : [
                {
                    "sampler" : 0,
                    "target" : {
                        "node" : 5,
                        "path" : "translation"
                    }
                },
                {
                    "sampler" : 1,
                    "target" : {
                        "node" : 5,
                        "path" : "rotation"
                    }
                },
                {
                    "sampler" : 2,
                    "target" : {
                        "node" : 5,
                        "path" : "scale"
                    }
                }
            ],
            "name" : "part",
            "samplers" : [
                {
                    "input" : 13,
                    "interpolation" : "LINEAR",
                    "output" : 29
                },
                {
                    "input" : 13,
                    "interpolation" : "LINEAR",
                    "output" : 30
                },
                {
                    "input" : 13,
                    "interpolation" : "LINEAR",
                    "output" : 31
                }
            ]
        }
    ],
    "materials" : [
        {
            "doubleSided" : true,
            "name" : "Material",
            "pbrMetallicRoughness" : {
                "baseColorFactor" : [
                    0.8000000715255737,
                    0,
                    0.002840197179466486,
                    1
                ],
                "metallicFactor" : 0.6638655662536621,
                "roughnessFactor" : 0.4000000059604645
            }
        }
    ],
    "meshes" : [
        {
            "name" : "Cube",
            "primitives" : [
                {
                    "attributes" : {
                        "POSITION" : 0,
                        "NORMAL" : 1,
                        "TEXCOORD_0" : 2,
                        "JOINTS_0" : 3,
                        "WEIGHTS_0" : 4
                    },
                    "indices" : 5,
                    "material" : 0
                },
                {
                    "attributes" : {
                        "POSITION" : 6,
                        "NORMAL" : 7,
                        "TEXCOORD_0" : 8,
                        "JOINTS_0" : 9,
                        "WEIGHTS_0" : 10
                    },
                    "indices" : 11
                }
            ]
        }
    ],
    "skins" : [
        {
            "inverseBindMatrices" : 12,
            "joints" : [
                4,
                1,
                0,
                3,
                2
            ],
            "name" : "Armature"
        }
    ],
    "accessors" : [
        {
            "bufferView" : 0,
            "componentType" : 5126,
            "count" : 5803,
            "max" : [
                15.00000286102295,
                59.79996109008789,
                114.99999237060547
            ],
            "min" : [
                -15,
                -4.0596703911432996e-05,
                -114.99999237060547
            ],
            "type" : "VEC3"
        },
        {
            "bufferView" : 1,
            "componentType" : 5126,
            "count" : 5803,
            "type" : "VEC3"
        },
        {
            "bufferView" : 2,
            "componentType" : 5126,
            "count" : 5803,
            "type" : "VEC2"
        },
        {
            "bufferView" : 3,
            "componentType" : 5121,
            "count" : 5803,
            "type" : "VEC4"
        },
        {
            "bufferView" : 4,
            "componentType" : 5126,
            "count" : 5803,
            "type" : "VEC4"
        },
        {
            "bufferView" : 5,
            "componentType" : 5123,
            "count" : 14748,
            "type" : "SCALAR"
        },
        {
            "bufferView" : 6,
            "componentType" : 5126,
            "count" : 19115,
            "max" : [
                15,
                21.12246322631836,
                85.13922119140625
            ],
            "min" : [
                -14.107573509216309,
                2.9999983310699463,
                -86.89817810058594
            ],
            "type" : "VEC3"
        },
        {
            "bufferView" : 7,
            "componentType" : 5126,
            "count" : 19115,
            "type" : "VEC3"
        },
        {
            "bufferView" : 8,
            "componentType" : 5126,
            "count" : 19115,
            "type" : "VEC2"
        },
        {
            "bufferView" : 9,
            "componentType" : 5121,
            "count" : 19115,
            "type" : "VEC4"
        },
        {
            "bufferView" : 10,
            "componentType" : 5126,
            "count" : 19115,
            "type" : "VEC4"
        },
        {
            "bufferView" : 11,
            "componentType" : 5123,
            "count" : 24834,
            "type" : "SCALAR"
        },
        {
            "bufferView" : 12,
            "componentType" : 5126,
            "count" : 5,
            "type" : "MAT4"
        },
        {
            "bufferView" : 13,
            "componentType" : 5126,
            "count" : 201,
            "max" : [
                8.333333333333334
            ],
            "min" : [
                0
            ],
            "type" : "SCALAR"
        },
        {
            "bufferView" : 14,
            "componentType" : 5126,
            "count" : 201,
            "type" : "VEC3"
        },
        {
            "bufferView" : 15,
            "componentType" : 5126,
            "count" : 201,
            "type" : "VEC4"
        },
        {
            "bufferView" : 16,
            "componentType" : 5126,
            "count" : 201,
            "type" : "VEC3"
        },
        {
            "bufferView" : 17,
            "componentType" : 5126,
            "count" : 201,
            "type" : "VEC3"
        },
        {
            "bufferView" : 18,
            "componentType" : 5126,
            "count" : 201,
            "type" : "VEC4"
        },
        {
            "bufferView" : 19,
            "componentType" : 5126,
            "count" : 201,
            "type" : "VEC3"
        },
        {
            "bufferView" : 20,
            "componentType" : 5126,
            "count" : 201,
            "type" : "VEC3"
        },
        {
            "bufferView" : 21,
            "componentType" : 5126,
            "count" : 201,
            "type" : "VEC4"
        },
        {
            "bufferView" : 22,
            "componentType" : 5126,
            "count" : 201,
            "type" : "VEC3"
        },
        {
            "bufferView" : 23,
            "componentType" : 5126,
            "count" : 201,
            "type" : "VEC3"
        },
        {
            "bufferView" : 24,
            "componentType" : 5126,
            "count" : 201,
            "type" : "VEC4"
        },
        {
            "bufferView" : 25,
            "componentType" : 5126,
            "count" : 201,
            "type" : "VEC3"
        },
        {
            "bufferView" : 26,
            "componentType" : 5126,
            "count" : 201,
            "type" : "VEC3"
        },
        {
            "bufferView" : 27,
            "componentType" : 5126,
            "count" : 201,
            "type" : "VEC4"
        },
        {
            "bufferView" : 28,
            "componentType" : 5126,
            "count" : 201,
            "type" : "VEC3"
        },
        {
            "bufferView" : 29,
            "componentType" : 5126,
            "count" : 201,
            "type" : "VEC3"
        },
        {
            "bufferView" : 30,
            "componentType" : 5126,
            "count" : 201,
            "type" : "VEC4"
        },
        {
            "bufferView" : 31,
            "componentType" : 5126,
            "count" : 201,
            "type" : "VEC3"
        }
    ],
    "bufferViews" : [
        {
            "buffer" : 0,
            "byteLength" : 69636,
            "byteOffset" : 0
        },
        {
            "buffer" : 0,
            "byteLength" : 69636,
            "byteOffset" : 69636
        },
        {
            "buffer" : 0,
            "byteLength" : 46424,
            "byteOffset" : 139272
        },
        {
            "buffer" : 0,
            "byteLength" : 23212,
            "byteOffset" : 185696
        },
        {
            "buffer" : 0,
            "byteLength" : 92848,
            "byteOffset" : 208908
        },
        {
            "buffer" : 0,
            "byteLength" : 29496,
            "byteOffset" : 301756
        },
        {
            "buffer" : 0,
            "byteLength" : 229380,
            "byteOffset" : 331252
        },
        {
            "buffer" : 0,
            "byteLength" : 229380,
            "byteOffset" : 560632
        },
        {
            "buffer" : 0,
            "byteLength" : 152920,
            "byteOffset" : 790012
        },
        {
            "buffer" : 0,
            "byteLength" : 76460,
            "byteOffset" : 942932
        },
        {
            "buffer" : 0,
            "byteLength" : 305840,
            "byteOffset" : 1019392
        },
        {
            "buffer" : 0,
            "byteLength" : 49668,
            "byteOffset" : 1325232
        },
        {
            "buffer" : 0,
            "byteLength" : 320,
            "byteOffset" : 1374900
        },
        {
            "buffer" : 0,
            "byteLength" : 804,
            "byteOffset" : 1375220
        },
        {
            "buffer" : 0,
            "byteLength" : 2412,
            "byteOffset" : 1376024
        },
        {
            "buffer" : 0,
            "byteLength" : 3216,
            "byteOffset" : 1378436
        },
        {
            "buffer" : 0,
            "byteLength" : 2412,
            "byteOffset" : 1381652
        },
        {
            "buffer" : 0,
            "byteLength" : 2412,
            "byteOffset" : 1384064
        },
        {
            "buffer" : 0,
            "byteLength" : 3216,
            "byteOffset" : 1386476
        },
        {
            "buffer" : 0,
            "byteLength" : 2412,
            "byteOffset" : 1389692
        },
        {
            "buffer" : 0,
            "byteLength" : 2412,
            "byteOffset" : 1392104
        },
        {
            "buffer" : 0,
            "byteLength" : 3216,
            "byteOffset" : 1394516
        },
        {
            "buffer" : 0,
            "byteLength" : 2412,
            "byteOffset" : 1397732
        },
        {
            "buffer" : 0,
            "byteLength" : 2412,
            "byteOffset" : 1400144
        },
        {
            "buffer" : 0,
            "byteLength" : 3216,
            "byteOffset" : 1402556
        },
        {
            "buffer" : 0,
            "byteLength" : 2412,
            "byteOffset" : 1405772
        },
        {
            "buffer" : 0,
            "byteLength" : 2412,
            "byteOffset" : 1408184
        },
        {
            "buffer" : 0,
            "byteLength" : 3216,
            "byteOffset" : 1410596
        },
        {
            "buffer" : 0,
            "byteLength" : 2412,
            "byteOffset" : 1413812
        },
        {
            "buffer" : 0,
            "byteLength" : 2412,
            "byteOffset" : 1416224
        },
        {
            "buffer" : 0,
            "byteLength" : 3216,
            "byteOffset" : 1418636
        },
        {
            "buffer" : 0,
            "byteLength" : 2412,
            "byteOffset" : 1421852
        }
    ],
    "buffers" : [
        {
            "byteLength" : 1424264,
            "uri" : "data:application/octet-stream;base64,"
        }
    ]
}
