{
    "asset" : {
        "generator" : "Khronos glTF Blender I/O v3.3.27",
        "version" : "2.0"
    },
    "scene" : 0,
    "scenes" : [
        {
            "extras" : {
                "sketcher" : {
                    "constraints" : {},
                    "entities" : {
                        "points3D" : [
                            {
                                "location" : [
                                    0.0,
                                    0.0,
                                    0.0
                                ],
                                "slvs_index" : 0,
                                "fixed" : 1,
                                "origin" : 1,
                                "dirty" : 0
                            }
                        ],
                        "origin_i" : 0,
                        "normals3D" : [
                            {
                                "orientation" : [
                                    0.4999999701976776,
                                    0.5,
                                    0.5,
                                    0.5
                                ],
                                "slvs_index" : 2097152,
                                "fixed" : 1,
                                "origin" : 1,
                                "dirty" : 0
                            },
                            {
                                "orientation" : [
                                    0.7071067690849304,
                                    0.7071067690849304,
                                    0.0,
                                    0.0
                                ],
                                "slvs_index" : 2097153,
                                "fixed" : 1,
                                "origin" : 1,
                                "dirty" : 0
                            },
                            {
                                "orientation" : [
                                    1.0,
                                    0.0,
                                    0.0,
                                    0.0
                                ],
                                "slvs_index" : 2097154,
                                "fixed" : 1,
                                "origin" : 1,
                                "dirty" : 0
                            }
                        ],
                        "origin_axis_X_i" : 2097152,
                        "origin_axis_Y_i" : 2097153,
                        "origin_axis_Z_i" : 2097154,
                        "workplanes" : [
                            {
                                "p1_i" : 0,
                                "nm_i" : 2097152,
                                "slvs_index" : 3145728,
                                "fixed" : 1,
                                "origin" : 1,
                                "dirty" : 0
                            },
                            {
                                "p1_i" : 0,
                                "nm_i" : 2097153,
                                "slvs_index" : 3145729,
                                "fixed" : 1,
                                "origin" : 1,
                                "dirty" : 0
                            },
                            {
                                "p1_i" : 0,
                                "nm_i" : 2097154,
                                "slvs_index" : 3145730,
                                "fixed" : 1,
                                "origin" : 1,
                                "dirty" : 0
                            }
                        ],
                        "origin_plane_YZ_i" : 3145728,
                        "origin_plane_XZ_i" : 3145729,
                        "origin_plane_XY_i" : 3145730
                    },
                    "version" : [
                        0,
                        25,
                        0
                    ],
                    "selectable_constraints" : 1
                }
            },
            "name" : "Scene",
            "nodes" : [
                0,
                1
            ]
        }
    ],
    "nodes" : [
        {
            "mesh" : 0,
            "name" : "Body1.001",
            "rotation" : [
                0.70710688829422,
                0,
                0,
                0.7071066498756409
            ],
            "scale" : [
                0.025770926848053932,
                0.025770926848053932,
                0.025770926848053932
            ],
            "translation" : [
                0.02845153771340847,
                3.385951042175293,
                0.017922604456543922
            ]
        },
        {
            "mesh" : 1,
            "name" : "Body2.001",
            "rotation" : [
                0.7071068286895752,
                0,
                0,
                0.7071068286895752
            ],
            "scale" : [
                0.025770926848053932,
                0.025770926848053932,
                0.025770926848053932
            ],
            "translation" : [
                -0.003148650750517845,
                1.3878917694091797,
                0.08037713915109634
            ]
        }
    ],
    "materials" : [
        {
            "doubleSided" : true,
            "name" : "Material.001",
            "pbrMetallicRoughness" : {
                "baseColorFactor" : [
                    0.0033465323504060507,
                    0.0033465330488979816,
                    0.0033465358428657055,
                    1
                ],
                "metallicFactor" : 0,
                "roughnessFactor" : 0.5
            }
        },
        {
            "doubleSided" : true,
            "name" : "Material",
            "pbrMetallicRoughness" : {
                "baseColorFactor" : [
                    0.8000000715255737,
                    0,
                    0.0037612926680594683,
                    1
                ],
                "metallicFactor" : 0,
                "roughnessFactor" : 0.5
            }
        }
    ],
    "meshes" : [
        {
            "name" : "Body1.002",
            "primitives" : [
                {
                    "attributes" : {
                        "POSITION" : 0,
                        "NORMAL" : 1,
                        "TEXCOORD_0" : 2
                    },
                    "indices" : 3,
                    "material" : 0
                }
            ]
        },
        {
            "name" : "Body2.002",
            "primitives" : [
                {
                    "attributes" : {
                        "POSITION" : 4,
                        "NORMAL" : 5
                    },
                    "indices" : 6,
                    "material" : 1
                }
            ]
        }
    ],
    "accessors" : [
        {
            "bufferView" : 0,
            "componentType" : 5126,
            "count" : 40958,
            "max" : [
                87.52432250976562,
                87.44184112548828,
                6.899121284484863
            ],
            "min" : [
                -87.47362518310547,
                -87.6052474975586,
                -19.02332305908203
            ],
            "type" : "VEC3"
        },
        {
            "bufferView" : 1,
            "componentType" : 5126,
            "count" : 40958,
            "type" : "VEC3"
        },
        {
            "bufferView" : 2,
            "componentType" : 5126,
            "count" : 40958,
            "type" : "VEC2"
        },
        {
            "bufferView" : 3,
            "componentType" : 5123,
            "count" : 42564,
            "type" : "SCALAR"
        },
        {
            "bufferView" : 4,
            "componentType" : 5126,
            "count" : 20610,
            "max" : [
                28.436092376708984,
                26.05706214904785,
                53.41488265991211
            ],
            "min" : [
                -28.44516944885254,
                -26.355350494384766,
                -77.99955749511719
            ],
            "type" : "VEC3"
        },
        {
            "bufferView" : 5,
            "componentType" : 5126,
            "count" : 20610,
            "type" : "VEC3"
        },
        {
            "bufferView" : 6,
            "componentType" : 5123,
            "count" : 20610,
            "type" : "SCALAR"
        }
    ],
    "bufferViews" : [
        {
            "buffer" : 0,
            "byteLength" : 491496,
            "byteOffset" : 0,
            "target" : 34962
        },
        {
            "buffer" : 0,
            "byteLength" : 491496,
            "byteOffset" : 491496,
            "target" : 34962
        },
        {
            "buffer" : 0,
            "byteLength" : 327664,
            "byteOffset" : 982992,
            "target" : 34962
        },
        {
            "buffer" : 0,
            "byteLength" : 85128,
            "byteOffset" : 1310656,
            "target" : 34963
        },
        {
            "buffer" : 0,
            "byteLength" : 247320,
            "byteOffset" : 1395784,
            "target" : 34962
        },
        {
            "buffer" : 0,
            "byteLength" : 247320,
            "byteOffset" : 1643104,
            "target" : 34962
        },
        {
            "buffer" : 0,
            "byteLength" : 41220,
            "byteOffset" : 1890424,
            "target" : 34963
        }
    ],
    "buffers" : [
        {
            "byteLength" : 1931644,
            "uri" : "data:application/octet-stream;base64,"
        }
    ]
}
