{
    "asset" : {
        "generator" : "Khronos glTF Blender I/O v3.3.27",
        "version" : "2.0"
    },
    "scene" : 0,
    "scenes" : [
        {
            "extras" : {
                "sketcher" : {
                    "entities" : {},
                    "constraints" : {},
                    "version" : [
                        0,
                        25,
                        0
                    ]
                }
            },
            "name" : "Scene",
            "nodes" : [
                0
            ]
        }
    ],
    "nodes" : [
        {
            "mesh" : 0,
            "name" : "cat_gltf_export",
            "rotation" : [
                0.7071068286895752,
                0,
                0,
                0.7071068286895752
            ],
            "scale" : [
                0.0650000125169754,
                0.0650000125169754,
                0.0650000125169754
            ],
            "translation" : [
                0.0027023619040846825,
                1.447859525680542,
                -0.00030719488859176636
            ]
        }
    ],
    "animations" : [
        {
            "channels" : [
                {
                    "sampler" : 0,
                    "target" : {
                        "node" : 0,
                        "path" : "rotation"
                    }
                },
                {
                    "sampler" : 1,
                    "target" : {
                        "node" : 0,
                        "path" : "translation"
                    }
                }
            ],
            "name" : "cat_gltf_exportAction",
            "samplers" : [
                {
                    "input" : 6,
                    "interpolation" : "LINEAR",
                    "output" : 7
                },
                {
                    "input" : 8,
                    "interpolation" : "LINEAR",
                    "output" : 9
                }
            ]
        }
    ],
    "materials" : [
        {
            "doubleSided" : true,
            "name" : "Material",
            "pbrMetallicRoughness" : {
                "baseColorFactor" : [
                    0.5394797325134277,
                    0.016807230189442635,
                    0.02955685369670391,
                    1
                ],
                "roughnessFactor" : 0.5
            }
        }
    ],
    "meshes" : [
        {
            "name" : "Shopping_Cart_Coin.002",
            "primitives" : [
                {
                    "attributes" : {
                        "POSITION" : 0,
                        "NORMAL" : 1
                    },
                    "indices" : 2,
                    "material" : 0
                },
                {
                    "attributes" : {
                        "POSITION" : 3,
                        "NORMAL" : 4
                    },
                    "indices" : 5
                }
            ]
        }
    ],
    "accessors" : [
        {
            "bufferView" : 0,
            "componentType" : 5126,
            "count" : 3572,
            "max" : [
                11.58234977722168,
                1.2872936725616455,
                22.24947738647461
            ],
            "min" : [
                -11.636396408081055,
                -1.0427064895629883,
                -18.365257263183594
            ],
            "type" : "VEC3"
        },
        {
            "bufferView" : 1,
            "componentType" : 5126,
            "count" : 3572,
            "type" : "VEC3"
        },
        {
            "bufferView" : 2,
            "componentType" : 5123,
            "count" : 7494,
            "type" : "SCALAR"
        },
        {
            "bufferView" : 3,
            "componentType" : 5126,
            "count" : 7979,
            "max" : [
                7.967830181121826,
                0.8872935771942139,
                -0.3562912940979004
            ],
            "min" : [
                -6.026329040527344,
                0.19096589088439941,
                -14.708179473876953
            ],
            "type" : "VEC3"
        },
        {
            "bufferView" : 4,
            "componentType" : 5126,
            "count" : 7979,
            "type" : "VEC3"
        },
        {
            "bufferView" : 5,
            "componentType" : 5123,
            "count" : 10338,
            "type" : "SCALAR"
        },
        {
            "bufferView" : 6,
            "componentType" : 5126,
            "count" : 250,
            "max" : [
                10.416666666666666
            ],
            "min" : [
                0.041666666666666664
            ],
            "type" : "SCALAR"
        },
        {
            "bufferView" : 7,
            "componentType" : 5126,
            "count" : 250,
            "type" : "VEC4"
        },
        {
            "bufferView" : 8,
            "componentType" : 5126,
            "count" : 51,
            "max" : [
                10.416666666666666
            ],
            "min" : [
                8.333333333333334
            ],
            "type" : "SCALAR"
        },
        {
            "bufferView" : 9,
            "componentType" : 5126,
            "count" : 51,
            "type" : "VEC3"
        }
    ],
    "bufferViews" : [
        {
            "buffer" : 0,
            "byteLength" : 42864,
            "byteOffset" : 0,
            "target" : 34962
        },
        {
            "buffer" : 0,
            "byteLength" : 42864,
            "byteOffset" : 42864,
            "target" : 34962
        },
        {
            "buffer" : 0,
            "byteLength" : 14988,
            "byteOffset" : 85728,
            "target" : 34963
        },
        {
            "buffer" : 0,
            "byteLength" : 95748,
            "byteOffset" : 100716,
            "target" : 34962
        },
        {
            "buffer" : 0,
            "byteLength" : 95748,
            "byteOffset" : 196464,
            "target" : 34962
        },
        {
            "buffer" : 0,
            "byteLength" : 20676,
            "byteOffset" : 292212,
            "target" : 34963
        },
        {
            "buffer" : 0,
            "byteLength" : 1000,
            "byteOffset" : 312888
        },
        {
            "buffer" : 0,
            "byteLength" : 4000,
            "byteOffset" : 313888
        },
        {
            "buffer" : 0,
            "byteLength" : 204,
            "byteOffset" : 317888
        },
        {
            "buffer" : 0,
            "byteLength" : 612,
            "byteOffset" : 318092
        }
    ],
    "buffers" : [
        {
            "byteLength" : 318704,
            "uri" : "data:application/octet-stream;base64,"
        }
    ]
}
