{
    "asset" : {
        "generator" : "Khronos glTF Blender I/O v3.2.43",
        "version" : "2.0"
    },
    "scene" : 0,
    "scenes" : [
        {
            "name" : "Scene",
            "nodes" : [
                0
            ]
        }
    ],
    "nodes" : [
        {
            "mesh" : 0,
            "name" : "Shopping_Cart_Coin",
            "scale" : [
                0.0970141813158989,
                0.0970141813158989,
                0.0970141813158989
            ]
        }
    ],
    "materials" : [
        {
            "doubleSided" : true,
            "name" : "Material.001",
            "pbrMetallicRoughness" : {
                "baseColorFactor" : [
                    0.027166347950696945,
                    0.07487980276346207,
                    0.6643282175064087,
                    1
                ],
                "metallicFactor" : 0,
                "roughnessFactor" : 0.49059632420539856
            }
        }
    ],
    "meshes" : [
        {
            "name" : "Shopping_Cart_Coin",
            "primitives" : [
                {
                    "attributes" : {
                        "POSITION" : 0,
                        "NORMAL" : 1,
                        "TEXCOORD_0" : 2
                    },
                    "indices" : 3,
                    "material" : 0
                },
                {
                    "attributes" : {
                        "POSITION" : 4,
                        "NORMAL" : 5,
                        "TEXCOORD_0" : 6
                    },
                    "indices" : 7
                }
            ]
        }
    ],
    "accessors" : [
        {
            "bufferView" : 0,
            "componentType" : 5126,
            "count" : 1735,
            "max" : [
                11.609373092651367,
                2.330000162124634,
                28.989734649658203
            ],
            "min" : [
                -11.609373092651367,
                0,
                -11.625
            ],
            "type" : "VEC3"
        },
        {
            "bufferView" : 1,
            "componentType" : 5126,
            "count" : 1735,
            "type" : "VEC3"
        },
        {
            "bufferView" : 2,
            "componentType" : 5126,
            "count" : 1735,
            "type" : "VEC2"
        },
        {
            "bufferView" : 3,
            "componentType" : 5123,
            "count" : 2388,
            "type" : "SCALAR"
        },
        {
            "bufferView" : 4,
            "componentType" : 5126,
            "count" : 92,
            "max" : [
                8.17218017578125,
                1.9300000667572021,
                8.41193962097168
            ],
            "min" : [
                -7.794519424438477,
                1.1995108127593994,
                -5.376818656921387
            ],
            "type" : "VEC3"
        },
        {
            "bufferView" : 5,
            "componentType" : 5126,
            "count" : 92,
            "type" : "VEC3"
        },
        {
            "bufferView" : 6,
            "componentType" : 5126,
            "count" : 92,
            "type" : "VEC2"
        },
        {
            "bufferView" : 7,
            "componentType" : 5123,
            "count" : 156,
            "type" : "SCALAR"
        }
    ],
    "bufferViews" : [
        {
            "buffer" : 0,
            "byteLength" : 20820,
            "byteOffset" : 0
        },
        {
            "buffer" : 0,
            "byteLength" : 20820,
            "byteOffset" : 20820
        },
        {
            "buffer" : 0,
            "byteLength" : 13880,
            "byteOffset" : 41640
        },
        {
            "buffer" : 0,
            "byteLength" : 4776,
            "byteOffset" : 55520
        },
        {
            "buffer" : 0,
            "byteLength" : 1104,
            "byteOffset" : 60296
        },
        {
            "buffer" : 0,
            "byteLength" : 1104,
            "byteOffset" : 61400
        },
        {
            "buffer" : 0,
            "byteLength" : 736,
            "byteOffset" : 62504
        },
        {
            "buffer" : 0,
            "byteLength" : 312,
            "byteOffset" : 63240
        }
    ],
    "buffers" : [
        {
            "byteLength" : 63552,
            "uri" : "data:application/octet-stream;base64,"
        }
    ]
}
